Encoded by Ratzz.








General
Complete name                    : Ramayana The Epic 720p Brrip  x264 Ratzz.mp4
Format                           : MP4
Format profile                   : Base Media
Codec ID                         : isom
File size                        : 699 MiB
Duration                         : 1h 41mn
Overall bit rate                 : 961 Kbps

Video
ID                               : 1
Format                           : AVC
Format/Info                      : Advanced Video Codec
Format profile                   : High@L5.1
Format settings, CABAC           : Yes
Format settings, ReFrames        : 3 frames
Codec ID                         : avc1
Codec ID/Info                    : Advanced Video Coding
Duration                         : 1h 41mn
Bit rate mode                    : Variable
Bit rate                         : 896 Kbps
Maximum bit rate                 : 300 Mbps
Width                            : 1 280 pixels
Height                           : 560 pixels
Display aspect ratio             : 2.25:1
Frame rate mode                  : Constant
Frame rate                       : 24.000 fps
Color space                      : YUV
Chroma subsampling               : 4:2:0
Bit depth                        : 8 bits
Scan type                        : Progressive
Bits/(Pixel*Frame)               : 0.052
Stream size                      : 651 MiB (93%)
Title                            : Ramayana The Epic 720p Brrip  x264 Ratzz
Writing library                  : x264 core 120 r2120 0c7dab9

Audio
ID                               : 2
Format                           : AAC
Format/Info                      : Advanced Audio Codec
Format profile                   : HE-AAC / LC
Codec ID                         : 40
Duration                         : 1h 41mn
Bit rate mode                    : Variable
Bit rate                         : 64.0 Kbps
Maximum bit rate                 : 72.2 Kbps
Channel(s)                       : 2 channels
Channel positions                : Front: L R
Sampling rate                    : 48.0 KHz / 24.0 KHz
Compression mode                 : Lossy
Stream size                      : 46.5 MiB (7%)
Language                         : Hindi








Sample included.














Screen shots :


 
http://img443.imageshack.us/img443/2164/ramayanatheepic720pbrri.jpg

 
http://img585.imageshack.us/img585/2164/ramayanatheepic720pbrri.jpg

 
http://img37.imageshack.us/img37/2164/ramayanatheepic720pbrri.jpg



Poster :


 
http://img43.imageshack.us/img43/2164/ramayanatheepic720pbrri.jpg








pls seed back after download and provide feedback.
thank you.